<svg xmlns="http://www.w3.org/2000/svg" version="1.1" xmlns:xlink="http://www.w3.org/1999/xlink" xmlns:svgjs="http://svgjs.com/svgjs" width="1440" height="560" preserveAspectRatio="none" viewBox="0 0 1440 560"><g mask="url(&quot;#SvgjsMask1000&quot;)" fill="none"><rect width="1440" height="560" x="0" y="0" fill="#0e2a47"></rect><path d="M1230.2446462993364 556.7479360622071L1355.4279006439247 592.6436566197891 1391.3236212015065 467.46040227520086 1266.1403668569183 431.56468171761895z" fill="rgba(28, 83, 142, 0.4)" class="triangle-float2"></path><path d="M183.91097587646945 365.1145031286813L87.14265453315159 326.0175634759369 76.88140572569398 490.7185153172859z" fill="rgba(28, 83, 142, 0.4)" class="triangle-float3"></path><path d="M1391.955,391.149C1427.106,390.791,1466.353,387.721,1484.448,357.583C1502.9,326.851,1491.45,288.069,1471.873,258.041C1454.227,230.975,1424.251,216.676,1391.955,215.713C1357.618,214.689,1322.384,224.431,1303.335,253.017C1282.19,284.748,1275.546,327.409,1296.136,359.503C1315.604,389.847,1355.905,391.517,1391.955,391.149" fill="rgba(28, 83, 142, 0.4)" class="triangle-float3"></path><path d="M692.6464530469193 521.7888540140459L670.8744935148545 419.3598376571474 568.445477157956 441.1317971892122 590.2174366900208 543.5608135461107z" fill="rgba(28, 83, 142, 0.4)" class="triangle-float3"></path><path d="M228.45159845104993 275.44903018403386L245.34017681586653 114.7649405074697 84.65608713930237 97.87636214265311 67.76750877448578 258.5604518192173z" fill="rgba(28, 83, 142, 0.4)" class="triangle-float1"></path><path d="M475.466927335044 343.2390519786438L343.18217237759666 399.39059902653884 399.3337194254917 531.6753539839862 531.6184743829391 475.5238069360911z" fill="rgba(28, 83, 142, 0.4)" class="triangle-float3"></path></g><defs><mask id="SvgjsMask1000"><rect width="1440" height="560" fill="#ffffff"></rect></mask><style>
            @keyframes float1 {
                0%{transform: translate(0, 0)}
                50%{transform: translate(-10px, 0)}
                100%{transform: translate(0, 0)}
            }

            .triangle-float1 {
                animation: float1 5s infinite;
            }

            @keyframes float2 {
                0%{transform: translate(0, 0)}
                50%{transform: translate(-5px, -5px)}
                100%{transform: translate(0, 0)}
            }

            .triangle-float2 {
                animation: float2 4s infinite;
            }

            @keyframes float3 {
                0%{transform: translate(0, 0)}
                50%{transform: translate(0, -10px)}
                100%{transform: translate(0, 0)}
            }

            .triangle-float3 {
                animation: float3 6s infinite;
            }
        </style></defs></svg>